<svg width="23" height="20" viewBox="0 0 23 20" fill="none" xmlns="http://www.w3.org/2000/svg">
<path d="M11.6015 9.16634C12.4817 9.16634 13.3422 8.922 14.0741 8.46409C14.806 8.00629 15.3765 7.35555 15.7133 6.59419C16.0501 5.83283 16.1383 4.99505 15.9665 4.1868C15.7948 3.37855 15.371 2.63611 14.7485 2.0534C14.1261 1.47068 13.3331 1.07384 12.4698 0.913073C11.6064 0.752298 10.7115 0.834815 9.89829 1.15017C9.08503 1.46554 8.38994 1.9996 7.90089 2.6848C7.41185 3.37001 7.15083 4.17559 7.15083 4.99967C7.15225 6.10434 7.6216 7.16337 8.45595 7.94449C9.2903 8.72559 10.4215 9.165 11.6015 9.16634ZM11.6015 2.49967C12.1296 2.49967 12.6459 2.6463 13.085 2.921C13.5242 3.19571 13.8665 3.58615 14.0685 4.04296C14.2707 4.49978 14.3235 5.00245 14.2206 5.4874C14.1175 5.97235 13.8632 6.41781 13.4897 6.76744C13.1163 7.11707 12.6404 7.35517 12.1224 7.45164C11.6044 7.5481 11.0675 7.49859 10.5795 7.30937C10.0916 7.12015 9.67455 6.79972 9.38112 6.3886C9.0877 5.97748 8.93108 5.49413 8.93108 4.99967C8.93108 4.33663 9.21242 3.70075 9.71322 3.23191C10.214 2.76306 10.8933 2.49967 11.6015 2.49967ZM3.59033 18.333V14.9997C3.59175 13.895 4.0611 12.836 4.89545 12.0548C5.7298 11.2738 6.86102 10.8343 8.04096 10.833H15.162C16.3419 10.8343 17.4731 11.2738 18.3075 12.0548C19.1418 12.836 19.6112 13.895 19.6126 14.9997V18.333C19.6126 18.554 19.5188 18.766 19.3519 18.9223C19.185 19.0785 18.9585 19.1663 18.7225 19.1663C18.4864 19.1663 18.2599 19.0785 18.093 18.9223C17.9261 18.766 17.8323 18.554 17.8323 18.333V14.9997C17.8323 14.3367 17.551 13.7008 17.0502 13.2319C16.5494 12.7631 15.8701 12.4997 15.162 12.4997H8.04096C7.33273 12.4997 6.65351 12.7631 6.15272 13.2319C5.65192 13.7008 5.37058 14.3367 5.37058 14.9997V18.333C5.37058 18.554 5.2768 18.766 5.10987 18.9223C4.94294 19.0785 4.71654 19.1663 4.48046 19.1663C4.24438 19.1663 4.01797 19.0785 3.85104 18.9223C3.68412 18.766 3.59033 18.554 3.59033 18.333Z" fill="white"/>
</svg>
