<svg width="25" height="16" viewBox="0 0 25 16" fill="none" xmlns="http://www.w3.org/2000/svg">
<g clip-path="url(#clip0_1_809)">
<path d="M16.7861 0C15.4916 0.0589997 13.9785 0.604996 13.0967 1.31599C12.2924 1.96099 11.6307 2.91898 11.8887 3.84998C13.3031 3.87898 14.7646 3.31998 15.6115 2.59698C16.4037 1.92399 17.0031 0.971994 16.7861 0Z" fill="black"/>
<path d="M21.9018 5.36811C20.6589 4.34112 18.912 3.74512 17.2624 3.74512C15.0845 3.74512 14.1633 4.43212 12.6502 4.43212C11.0901 4.43212 9.90477 3.74712 8.02136 3.74712C6.17133 3.74712 4.20142 4.49212 2.95239 5.76611C1.19646 7.56011 1.49696 10.9331 4.34256 13.8061C5.36091 14.8341 6.72073 15.9901 8.49942 16.0001C10.0823 16.0101 10.5285 15.3311 12.673 15.3241C14.8174 15.3161 15.2241 16.0091 16.804 15.9981C18.5842 15.9891 20.0184 14.7081 21.0368 13.6801C21.7668 12.9431 22.0384 12.5721 22.6045 11.7401C18.4871 10.7071 17.8269 6.84911 21.9018 5.36811Z" fill="black"/>
</g>
<defs>
<clipPath id="clip0_1_809">
<rect width="24.2826" height="16" fill="white" transform="translate(0.0927734)"/>
</clipPath>
</defs>
</svg>
