<svg width="41" height="40" viewBox="0 0 41 40" fill="none" xmlns="http://www.w3.org/2000/svg">
<g clip-path="url(#clip0_1_1925)">
<path d="M40.1136 22.6656L37.1244 5.44562C36.7181 3.10599 34.5134 1.53807 32.2105 1.95067L6.57269 6.54266C4.26929 6.95518 2.72577 9.19423 3.1319 11.5339L3.35154 12.7993C1.85144 13.464 0.799805 14.9843 0.799805 16.7502V33.8057C0.799805 36.1814 2.70263 38.1142 5.04151 38.1142H30.4918C32.8306 38.1142 34.7335 36.1814 34.7335 33.8057V28.0042L36.6728 27.6568C37.7886 27.457 38.7609 26.8278 39.4108 25.885C40.0607 24.9423 40.3103 23.7988 40.1136 22.6656ZM37.5156 24.537C37.2203 24.9655 36.7782 25.2515 36.271 25.3424L34.7335 25.6178V24.2783V18.9475V16.7501C34.7335 14.3744 32.8306 12.4416 30.4918 12.4416H5.6389L5.41046 11.1257C5.321 10.6106 5.43453 10.0909 5.7299 9.66229C6.02528 9.23379 6.46734 8.94778 6.9745 8.8569L32.6123 4.26499C32.7251 4.24478 32.8373 4.23507 32.9481 4.23507C33.8655 4.23507 34.6812 4.9047 34.8459 5.8536L37.8351 23.0736C37.9245 23.5888 37.811 24.1085 37.5156 24.537ZM30.4918 35.7641H5.04151C3.97839 35.7641 3.11346 34.8856 3.11346 33.8057V25.4534H32.4198V33.8056C32.4198 34.8856 31.5549 35.7641 30.4918 35.7641ZM5.04151 14.7918H30.4918C31.5549 14.7918 32.4198 15.6703 32.4198 16.7502V17.7725H3.11346V16.7502C3.11346 15.6703 3.97839 14.7918 5.04151 14.7918ZM32.4198 20.1226V23.1034H3.11346V20.1226H32.4198Z" fill="#041E42"/>
<path d="M11.9323 31.0459H6.68417C6.0453 31.0459 5.52734 31.572 5.52734 32.221C5.52734 32.8699 6.0453 33.396 6.68417 33.396H11.9323C12.5712 33.396 13.0892 32.8699 13.0892 32.221C13.0892 31.572 12.5712 31.0459 11.9323 31.0459Z" fill="#041E42"/>
</g>
<defs>
<clipPath id="clip0_1_1925">
<rect width="39.3793" height="40" fill="white" transform="translate(0.799805)"/>
</clipPath>
</defs>
</svg>
