<svg width="40" height="40" viewBox="0 0 40 40" fill="none" xmlns="http://www.w3.org/2000/svg">
<path d="M19.8766 0C10.3345 0 2.57129 7.88555 2.57129 17.5781C2.57129 18.6523 2.57129 26.9616 2.57129 27.1094C2.57129 29.0479 4.12393 30.625 6.03236 30.625H7.38449C7.86073 31.9889 9.1431 32.9688 10.6471 32.9688C12.5556 32.9688 14.1082 31.3916 14.1082 29.4531V19.9219C14.1082 17.9834 12.5556 16.4062 10.6471 16.4062C9.1431 16.4062 7.86073 17.3861 7.38449 18.75H6.03236C5.62788 18.75 5.23978 18.8215 4.87867 18.9516V17.5781C4.87867 9.17789 11.6068 2.34375 19.8766 2.34375C28.1465 2.34375 34.8746 9.17789 34.8746 17.5781V18.9516C34.5135 18.8215 34.1254 18.75 33.7209 18.75H32.3688C31.8926 17.3861 30.6102 16.4062 29.1062 16.4062C27.1977 16.4062 25.6451 17.9834 25.6451 19.9219V29.4531C25.6451 31.3916 27.1977 32.9688 29.1062 32.9688C29.4554 32.9688 29.7926 32.9155 30.1107 32.8173C29.6792 34.2596 28.358 35.3125 26.7988 35.3125H23.1393C22.663 33.9486 21.3807 32.9688 19.8766 32.9688C17.9682 32.9688 16.4156 34.5459 16.4156 36.4844C16.4156 38.4229 17.9682 40 19.8766 40C21.3807 40 22.663 39.0202 23.1393 37.6562H26.7988C29.9795 37.6562 32.5672 35.0277 32.5672 31.7969V30.625H33.7209C35.6294 30.625 37.182 29.0479 37.182 27.1094C37.182 26.9638 37.182 18.6514 37.182 17.5781C37.182 7.88555 29.4188 0 19.8766 0ZM9.49343 19.9219C9.49343 19.2757 10.011 18.75 10.6471 18.75C11.2833 18.75 11.8008 19.2757 11.8008 19.9219V29.4531C11.8008 30.0993 11.2833 30.625 10.6471 30.625C10.011 30.625 9.49343 30.0993 9.49343 29.4531V19.9219ZM6.03236 21.0938H7.18605V28.2812H6.03236C5.39622 28.2812 4.87867 27.7555 4.87867 27.1094V22.2656C4.87867 21.6195 5.39622 21.0938 6.03236 21.0938ZM19.8766 37.6562C19.2405 37.6562 18.723 37.1305 18.723 36.4844C18.723 35.8382 19.2405 35.3125 19.8766 35.3125C20.5128 35.3125 21.0303 35.8382 21.0303 36.4844C21.0303 37.1305 20.5128 37.6562 19.8766 37.6562ZM30.2599 29.4531C30.2599 30.0993 29.7423 30.625 29.1062 30.625C28.47 30.625 27.9525 30.0993 27.9525 29.4531V19.9219C27.9525 19.2757 28.47 18.75 29.1062 18.75C29.7423 18.75 30.2599 19.2757 30.2599 19.9219V29.4531ZM34.8746 27.1094C34.8746 27.7555 34.3571 28.2812 33.7209 28.2812H32.5672V21.0938H33.7209C34.3571 21.0938 34.8746 21.6195 34.8746 22.2656V27.1094Z" fill="#041E42"/>
</svg>
