<svg width="23" height="20" viewBox="0 0 23 20" fill="none" xmlns="http://www.w3.org/2000/svg">
<g clip-path="url(#clip0_10_3530)">
<path fill-rule="evenodd" clip-rule="evenodd" d="M16.7701 17.4997C16.7701 16.5792 17.5622 15.833 18.5394 15.833C19.5165 15.833 20.3086 16.5792 20.3086 17.4997C20.3086 18.4202 19.5165 19.1663 18.5394 19.1663C17.5622 19.1663 16.7701 18.4202 16.7701 17.4997Z" fill="white"/>
<path fill-rule="evenodd" clip-rule="evenodd" d="M7.03943 17.4997C7.03943 16.5792 7.83153 15.833 8.80865 15.833C9.78579 15.833 10.5779 16.5792 10.5779 17.4997C10.5779 18.4202 9.78579 19.1663 8.80865 19.1663C7.83153 19.1663 7.03943 18.4202 7.03943 17.4997Z" fill="white"/>
<path fill-rule="evenodd" clip-rule="evenodd" d="M0.847168 0.833333C0.847168 0.373096 1.24322 0 1.73178 0H5.27021C5.69184 0 6.05487 0.280321 6.13761 0.669786L6.88058 4.16667H21.1932C21.4568 4.16667 21.7067 4.27744 21.8748 4.4688C22.0428 4.66015 22.1115 4.91215 22.0621 5.15611L20.6455 12.154C20.5241 12.7295 20.1918 13.2465 19.7066 13.6144C19.2238 13.9805 18.6204 14.1758 18.001 14.1667H9.41782C8.79836 14.1758 8.1949 13.9805 7.71215 13.6144C7.22718 13.2466 6.89492 12.7299 6.77345 12.1547C6.7734 12.1545 6.7735 12.1549 6.77345 12.1547L5.29568 5.19933C5.28968 5.17632 5.2847 5.15294 5.28078 5.12923L4.54511 1.66667H1.73178C1.24322 1.66667 0.847168 1.29357 0.847168 0.833333H0.847168ZM7.23469 5.83333L8.50862 11.8293C8.54906 12.0212 8.65984 12.1935 8.82157 12.3161C8.98329 12.4387 9.18565 12.5039 9.39323 12.5002L9.41018 12.5H18.0086L18.0256 12.5002C18.2331 12.5039 18.4355 12.4387 18.5972 12.3161C18.7582 12.194 18.8687 12.0227 18.9095 11.832L20.1239 5.83333H7.23469Z" fill="white"/>
</g>
<defs>
<clipPath id="clip0_10_3530">
<rect width="21.2306" height="20" fill="white" transform="translate(0.847168)"/>
</clipPath>
</defs>
</svg>
