<svg width="11" height="10" viewBox="0 0 11 10" fill="none" xmlns="http://www.w3.org/2000/svg">
<g id="star (1) 1" clip-path="url(#clip0_373_977)">
<path id="Vector" d="M10.2812 3.83573C10.2191 3.63325 10.0497 3.48989 9.84997 3.47074L7.12627 3.20866L6.04985 0.537725C5.97038 0.341494 5.78955 0.214844 5.58827 0.214844C5.387 0.214844 5.2061 0.341494 5.12713 0.537725L4.05071 3.20866L1.32658 3.47074C1.12688 3.49027 0.957787 3.63363 0.895303 3.83573C0.833178 4.03822 0.890552 4.26032 1.04158 4.4007L3.10048 6.3141L2.49341 9.14786C2.449 9.35622 2.5253 9.57168 2.68842 9.69665C2.77611 9.76417 2.87912 9.79789 2.98249 9.79789C3.07132 9.79789 3.16023 9.77287 3.23963 9.72251L5.58827 8.23415L7.93649 9.72251C8.10875 9.83161 8.32536 9.82162 8.48812 9.69665C8.65125 9.57168 8.72755 9.35622 8.68314 9.14786L8.07607 6.3141L10.135 4.4007C10.2859 4.26032 10.3434 4.03868 10.2812 3.83573V3.83573Z" fill="#F5C34B"/>
</g>
<defs>
<clipPath id="clip0_373_977">
<rect width="9.43531" height="10" fill="white" transform="translate(0.870605)"/>
</clipPath>
</defs>
</svg>
