<svg width="120" height="26" viewBox="0 0 120 26" fill="none" xmlns="http://www.w3.org/2000/svg">
<g filter="url(#filter0_d_7_3861)">
<path d="M8.856 13.64H16.104V17H4.2V13.88L11.4 3.512H4.2V0.151999H16.104V3.272L8.856 13.64ZM31.4089 10.088C31.4089 10.472 31.3849 10.872 31.3369 11.288H22.0489C22.1129 12.12 22.3769 12.76 22.8409 13.208C23.3209 13.64 23.9049 13.856 24.5929 13.856C25.6169 13.856 26.3289 13.424 26.7289 12.56H31.0969C30.8729 13.44 30.4649 14.232 29.8729 14.936C29.2969 15.64 28.5689 16.192 27.6889 16.592C26.8089 16.992 25.8249 17.192 24.7369 17.192C23.4249 17.192 22.2569 16.912 21.2329 16.352C20.2089 15.792 19.4089 14.992 18.8329 13.952C18.2569 12.912 17.9689 11.696 17.9689 10.304C17.9689 8.912 18.2489 7.696 18.8089 6.656C19.3849 5.616 20.1849 4.816 21.2089 4.256C22.2329 3.696 23.4089 3.416 24.7369 3.416C26.0329 3.416 27.1849 3.688 28.1929 4.232C29.2009 4.776 29.9849 5.552 30.5449 6.56C31.1209 7.568 31.4089 8.744 31.4089 10.088ZM27.2089 9.008C27.2089 8.304 26.9689 7.744 26.4889 7.328C26.0089 6.912 25.4089 6.704 24.6889 6.704C24.0009 6.704 23.4169 6.904 22.9369 7.304C22.4729 7.704 22.1849 8.272 22.0729 9.008H27.2089ZM41.7339 3.464C43.3019 3.464 44.5499 3.976 45.4779 5C46.4219 6.008 46.8939 7.4 46.8939 9.176V17H42.8139V9.728C42.8139 8.832 42.5819 8.136 42.1179 7.64C41.6539 7.144 41.0299 6.896 40.2459 6.896C39.4619 6.896 38.8379 7.144 38.3739 7.64C37.9099 8.136 37.6779 8.832 37.6779 9.728V17H33.5739V3.608H37.6779V5.384C38.0939 4.792 38.6539 4.328 39.3579 3.992C40.0619 3.64 40.8539 3.464 41.7339 3.464ZM66.8338 3.464C68.4978 3.464 69.8178 3.968 70.7938 4.976C71.7858 5.984 72.2818 7.384 72.2818 9.176V17H68.2018V9.728C68.2018 8.864 67.9698 8.2 67.5058 7.736C67.0578 7.256 66.4338 7.016 65.6338 7.016C64.8338 7.016 64.2018 7.256 63.7378 7.736C63.2898 8.2 63.0658 8.864 63.0658 9.728V17H58.9858V9.728C58.9858 8.864 58.7538 8.2 58.2898 7.736C57.8418 7.256 57.2178 7.016 56.4178 7.016C55.6178 7.016 54.9858 7.256 54.5218 7.736C54.0738 8.2 53.8498 8.864 53.8498 9.728V17H49.7458V3.608H53.8498V5.288C54.2658 4.728 54.8098 4.288 55.4818 3.968C56.1538 3.632 56.9138 3.464 57.7618 3.464C58.7698 3.464 59.6658 3.68 60.4498 4.112C61.2498 4.544 61.8738 5.16 62.3218 5.96C62.7858 5.224 63.4178 4.624 64.2178 4.16C65.0178 3.696 65.8898 3.464 66.8338 3.464ZM74.3361 10.28C74.3361 8.904 74.5921 7.696 75.1041 6.656C75.6321 5.616 76.3441 4.816 77.2401 4.256C78.1361 3.696 79.1361 3.416 80.2401 3.416C81.1841 3.416 82.0081 3.608 82.7121 3.992C83.4321 4.376 83.9841 4.88 84.3681 5.504V3.608H88.4721V17H84.3681V15.104C83.9681 15.728 83.4081 16.232 82.6881 16.616C81.9841 17 81.1601 17.192 80.2161 17.192C79.1281 17.192 78.1361 16.912 77.2401 16.352C76.3441 15.776 75.6321 14.968 75.1041 13.928C74.5921 12.872 74.3361 11.656 74.3361 10.28ZM84.3681 10.304C84.3681 9.28 84.0801 8.472 83.5041 7.88C82.9441 7.288 82.2561 6.992 81.4401 6.992C80.6241 6.992 79.9281 7.288 79.3521 7.88C78.7921 8.456 78.5121 9.256 78.5121 10.28C78.5121 11.304 78.7921 12.12 79.3521 12.728C79.9281 13.32 80.6241 13.616 81.4401 13.616C82.2561 13.616 82.9441 13.32 83.5041 12.728C84.0801 12.136 84.3681 11.328 84.3681 10.304ZM95.5451 5.84C96.0251 5.104 96.6251 4.528 97.3451 4.112C98.0651 3.68 98.8651 3.464 99.7451 3.464V7.808H98.6171C97.5931 7.808 96.8251 8.032 96.3131 8.48C95.8011 8.912 95.5451 9.68 95.5451 10.784V17H91.4411V3.608H95.5451V5.84ZM109.171 13.52V17H107.083C105.595 17 104.435 16.64 103.603 15.92C102.771 15.184 102.355 13.992 102.355 12.344V7.016H100.723V3.608H102.355V0.344H106.459V3.608H109.147V7.016H106.459V12.392C106.459 12.792 106.555 13.08 106.747 13.256C106.939 13.432 107.259 13.52 107.707 13.52H109.171Z" fill="white"/>
<path d="M113.377 17.192C112.657 17.192 112.065 16.984 111.601 16.568C111.153 16.136 110.929 15.608 110.929 14.984C110.929 14.344 111.153 13.808 111.601 13.376C112.065 12.944 112.657 12.728 113.377 12.728C114.081 12.728 114.657 12.944 115.105 13.376C115.569 13.808 115.801 14.344 115.801 14.984C115.801 15.608 115.569 16.136 115.105 16.568C114.657 16.984 114.081 17.192 113.377 17.192Z" fill="#F5C34B"/>
</g>
<defs>
<filter id="filter0_d_7_3861" x="0.200195" y="0.152344" width="119.601" height="25.04" filterUnits="userSpaceOnUse" color-interpolation-filters="sRGB">
<feFlood flood-opacity="0" result="BackgroundImageFix"/>
<feColorMatrix in="SourceAlpha" type="matrix" values="0 0 0 0 0 0 0 0 0 0 0 0 0 0 0 0 0 0 127 0" result="hardAlpha"/>
<feOffset dy="4"/>
<feGaussianBlur stdDeviation="2"/>
<feComposite in2="hardAlpha" operator="out"/>
<feColorMatrix type="matrix" values="0 0 0 0 0 0 0 0 0 0 0 0 0 0 0 0 0 0 0.25 0"/>
<feBlend mode="normal" in2="BackgroundImageFix" result="effect1_dropShadow_7_3861"/>
<feBlend mode="normal" in="SourceGraphic" in2="effect1_dropShadow_7_3861" result="shape"/>
</filter>
</defs>
</svg>
